<svg width="400" height="72" viewBox="0 0 400 72" fill="none" xmlns="http://www.w3.org/2000/svg">
<path fill-rule="evenodd" clip-rule="evenodd" d="M73.632 0C64.3003 0.0169382 55.356 3.73344 48.7602 10.3347C42.1644 16.936 38.4552 25.8833 38.446 35.215H50.868C50.8716 30.7132 52.2098 26.3136 54.7134 22.5722C57.2171 18.8309 60.7738 15.9159 64.9339 14.1956C69.094 12.4754 73.6708 12.0272 78.0856 12.9077C82.5004 13.7882 86.5551 15.9579 89.737 19.1424C92.9189 22.327 95.0852 26.3834 95.962 30.799C96.8388 35.2145 96.3868 39.7909 94.6631 43.9496C92.9394 48.1083 90.0214 51.6626 86.278 54.1631C82.5345 56.6637 78.1338 57.9982 73.632 57.998C72.648 57.998 70.949 57.824 70.949 57.824C68.3524 61.7963 65.1789 65.36 61.533 68.398C65.43 69.725 69.5163 70.4112 73.633 70.43C82.94 70.3804 91.8488 66.6484 98.4124 60.0498C104.976 53.4512 108.66 44.5226 108.66 35.2155C108.66 25.9084 104.976 16.9798 98.4124 10.3812C91.8488 3.78255 82.94 0.0505962 73.633 0.000999987" fill="#BB16A3"/>
<path fill-rule="evenodd" clip-rule="evenodd" d="M35.187 70.43C44.519 70.4133 53.4636 66.697 60.0598 60.0957C66.656 53.4945 70.3655 44.547 70.375 35.215H57.953C57.9492 39.7169 56.6108 44.1166 54.107 47.8579C51.6032 51.5993 48.0463 54.5143 43.886 56.2345C39.7257 57.9547 35.1489 58.4028 30.7339 57.5222C26.319 56.6417 22.2643 54.4719 19.0823 51.2873C15.9003 48.1026 13.734 44.0461 12.8571 39.6304C11.9802 35.2148 12.4321 30.6383 14.1558 26.4794C15.8794 22.3206 18.7974 18.7662 22.5409 16.2654C26.2843 13.7647 30.6851 12.43 35.187 12.43C36.171 12.43 37.87 12.605 37.87 12.605C40.4667 8.63211 43.6405 5.06802 47.287 2.03C43.3899 0.70384 39.3035 0.0182799 35.187 0C25.88 0.0495962 16.9712 3.78155 10.4076 10.3802C3.84408 16.9788 0.159653 25.9074 0.159653 35.2145C0.159653 44.5216 3.84408 53.4502 10.4076 60.0488C16.9712 66.6474 25.88 70.3794 35.187 70.429" fill="#00AF66"/>
<path fill-rule="evenodd" clip-rule="evenodd" d="M165.847 29.941C171.735 29.941 175.691 26.15 175.691 20.506C175.697 19.349 175.468 18.2029 175.018 17.1367C174.569 16.0706 173.908 15.1066 173.076 14.3029C172.243 13.4992 171.257 12.8725 170.176 12.4605C169.095 12.0485 167.941 11.8599 166.785 11.906H147.664V29.941H165.847ZM166.889 58.525C173.184 58.525 176.942 55.115 176.942 49.404C176.942 43.947 173.112 40.281 167.411 40.281H147.664V58.525H166.889ZM134.414 69.7V0.729996H168.349C180.605 0.729996 188.525 8.165 188.525 19.671C188.525 30.305 179.631 33.521 178.31 33.971V34.605C179.857 34.961 190.51 37.649 190.51 50.757C190.51 60.192 185.572 69.697 168.457 69.697L134.414 69.7Z" fill="white"/>
<path fill-rule="evenodd" clip-rule="evenodd" d="M278.578 38.624L278.424 38.043C276.771 31.822 272.006 28.109 265.676 28.109C260.521 28.109 254.168 31.219 252.407 38.046L252.258 38.625L278.578 38.624ZM265.678 71.263C251.398 71.263 239.247 60.585 239.247 44.207C239.247 27.829 251.396 17.047 265.676 17.047C279.956 17.047 291.096 28.282 291.586 43.18V47.393H251.886L251.986 47.938C253.333 55.398 258.899 60.41 265.617 60.41C270.265 60.41 274.927 59.589 278.594 53.637L278.66 53.53H291.121L291.01 53.83C286.938 64.907 277.838 71.26 265.68 71.26L265.678 71.263Z" fill="white"/>
<path fill-rule="evenodd" clip-rule="evenodd" d="M301.028 69.7H313.862V0.733002H301.028V69.7Z" fill="white"/>
<path fill-rule="evenodd" clip-rule="evenodd" d="M323.346 69.7H336.18V0.733002H323.346V69.7Z" fill="white"/>
<path fill-rule="evenodd" clip-rule="evenodd" d="M371.9 28.109C362.853 28.109 356.844 34.728 356.844 44.209C356.844 53.69 362.853 60.202 371.9 60.202C379.4 60.202 387.165 54.22 387.165 44.209C387.165 34.132 379.403 28.109 371.9 28.109ZM369.5 71.263C354.626 71.263 344.425 58.21 344.425 44.207C344.425 30.204 354.625 17.046 369.449 17.046C382.159 17.046 386.527 23.969 386.527 23.969H387.163V18.61H399.997V69.7H387.165V64.337H386.529C386.529 64.337 382.212 71.259 369.502 71.259" fill="white"/>
<path fill-rule="evenodd" clip-rule="evenodd" d="M199.608 69.7V18.611H212.445V29.618H213.081C213.69 28.28 218.045 17.882 231.566 17.882H234.06V30.612H231.46C218.841 30.612 212.442 38.272 212.442 53.381V69.701L199.608 69.7Z" fill="white"/>
</svg>
